<mxfile host="app.diagrams.net" modified="2024-02-07T12:39:59.261Z" agent="Mozilla/5.0 (Windows NT 10.0; Win64; x64) AppleWebKit/537.36 (KHTML, like Gecko) Chrome/121.0.0.0 Safari/537.36" etag="dCIoa6qrA0BhMy8oli0r" version="23.1.1" type="github">
  <diagram name="Page-1" id="9jsj0meyh8jPgqVI2lMI">
    <mxGraphModel dx="743" dy="427" grid="1" gridSize="10" guides="1" tooltips="1" connect="1" arrows="1" fold="1" page="1" pageScale="1" pageWidth="850" pageHeight="1100" math="0" shadow="0">
      <root>
        <mxCell id="0" />
        <mxCell id="1" parent="0" />
        <mxCell id="lF5eAHAEJ-rfSDpJn1Fy-1" value="" style="rhombus;whiteSpace=wrap;html=1;" vertex="1" parent="1">
          <mxGeometry x="340" y="190" width="80" height="80" as="geometry" />
        </mxCell>
        <mxCell id="salXLsR7QGyPrcJkYGVV-1" value="Entity" style="rounded=1;arcSize=10;whiteSpace=wrap;html=1;align=center;" vertex="1" parent="1">
          <mxGeometry x="425" y="140" width="255" height="290" as="geometry" />
        </mxCell>
        <mxCell id="salXLsR7QGyPrcJkYGVV-2" value="Text" style="text;html=1;align=center;verticalAlign=middle;resizable=0;points=[];autosize=1;strokeColor=none;fillColor=none;" vertex="1" parent="1">
          <mxGeometry x="215" y="498" width="50" height="30" as="geometry" />
        </mxCell>
      </root>
    </mxGraphModel>
  </diagram>
</mxfile>
